<mxfile host="app.diagrams.net" modified="2023-01-10T00:21:19.398Z" agent="5.0 (Windows NT 10.0; Win64; x64) AppleWebKit/537.36 (KHTML, like Gecko) Chrome/108.0.0.0 Safari/537.36" version="20.6.0" etag="qWEXcgz9_Rxgtyi_RLYe" type="github">
  <diagram id="DkeB8_sBjwUHHMxCQOJD" name="ページ1">
    <mxGraphModel dx="870" dy="559" grid="1" gridSize="10" guides="1" tooltips="1" connect="1" arrows="1" fold="1" page="1" pageScale="1" pageWidth="1169" pageHeight="827" math="0" shadow="0">
      <root>
        <mxCell id="0" />
        <mxCell id="1" parent="0" />
        <mxCell id="CiQ2p5cPl4LBRMqpcZ8X-1" value="・ユーザーは会員登録ができる。&lt;br&gt;　・ユーザーは　ID※、名前※、email、PW、アイコン※、自己紹介文（一言メッセージ、ステータス）、を設定できる&lt;br&gt;・ユーザーはゲームをプレイできる。&lt;br&gt;・ユーザーは各お題のプレイ履歴（プレイ回数、各スコア）を持つ&lt;br&gt;・ユーザーは各お題のハイスコアを持つ&lt;br&gt;・ユーザーは各お題の読み札の正答率を持つ&lt;br&gt;・ユーザーは各お題の" style="rounded=0;whiteSpace=wrap;html=1;align=left;" vertex="1" parent="1">
          <mxGeometry x="100" y="50" width="360" height="440" as="geometry" />
        </mxCell>
        <mxCell id="CiQ2p5cPl4LBRMqpcZ8X-2" value="・ユーザーは" style="rounded=0;whiteSpace=wrap;html=1;align=left;" vertex="1" parent="1">
          <mxGeometry x="480" y="50" width="360" height="440" as="geometry" />
        </mxCell>
      </root>
    </mxGraphModel>
  </diagram>
</mxfile>
